<?xml version="1.0" encoding="UTF-8"?>
<svg id="katman_1" data-name="katman 1" xmlns="http://www.w3.org/2000/svg" viewBox="0 0 198.64 46.64">
  <defs>
    <style>
      .cls-1 {
        fill: #bf1818;
      }

      .cls-2 {
        fill: #fff;
      }
    </style>
  </defs>
  <rect class="cls-2" x="3.12" y="3.46" width="40.39" height="39.74"/>
  <path class="cls-1" d="M38.74,0H7.89C3.53,0,0,3.53,0,7.9v30.85c0,4.36,3.53,7.9,7.89,7.9h30.85c4.36,0,7.89-3.53,7.89-7.9V7.9c0-4.36-3.53-7.9-7.89-7.9ZM23.32,4.99c5.12,0,9.8,1.55,13.37,4.3-3.88-1.65-8.46-2.55-13.37-2.55s-9.49.9-13.37,2.55c3.57-2.75,8.25-4.3,13.37-4.3ZM7.21,11.9c4.32-2.68,10-4.16,16.11-4.16s11.78,1.48,16.1,4.16c.69.81,1.3,1.67,1.83,2.6-4.6-3.24-10.94-5.07-17.93-5.07s-13.34,1.84-17.94,5.07c.53-.93,1.14-1.79,1.83-2.6ZM4.29,16.78c4.48-4.06,11.43-6.36,19.03-6.36s14.55,2.29,19.02,6.36c.2.49.37,1,.52,1.51-4.67-4-11.69-6.32-19.54-6.32s-14.88,2.32-19.54,6.32c.15-.52.32-1.02.52-1.51ZM30.08,23.62c0-3.33-2.4-4.68-5.56-5.24v12.22s0,7.62,0,7.62c0,.76.18,1.31.55,1.66.36.35.86.52,1.5.52,1.34,0,2.02-.71,2.04-2.11v-7.69h2.39v7.61c0,1.27-.4,2.27-1.19,3-.79.74-1.87,1.1-3.24,1.1s-2.42-.36-3.21-1.07-1.2-1.69-1.22-2.95v-19.92c-3.17.56-5.57,1.91-5.57,5.24,0-3.47-2.62-5.11-5.99-5.32,3.74-1.58,8.12-2.43,12.75-2.43s9.01.85,12.74,2.43c-3.37.21-5.99,1.85-5.99,5.32ZM43.19,21.48c-.72-1.7-2.35-2.68-4.38-3.04-4.29-2.29-9.66-3.57-15.49-3.57s-11.2,1.28-15.5,3.57c-2.03.37-3.66,1.34-4.38,3.04-.11.1-.22.2-.32.29.05-.5.11-1,.2-1.49,4.4-4.66,11.83-7.3,20-7.3s15.59,2.65,20,7.3c.09.49.15.99.2,1.49-.1-.1-.21-.2-.32-.29Z"/>
  <g>
    <g>
      <path class="cls-2" d="M57.13,18.48c.42,0,.79-.07,1.12-.21s.61-.33.83-.59c.23-.25.4-.56.52-.92.12-.36.18-.76.18-1.21v-6.96h2.16v6.96c0,.69-.11,1.33-.33,1.92-.22.59-.54,1.09-.96,1.52s-.92.76-1.51,1-1.26.36-2.01.36-1.42-.12-2.02-.36c-.59-.24-1.1-.57-1.51-1s-.73-.93-.96-1.52c-.22-.59-.33-1.23-.33-1.92v-6.96h2.16v6.95c0,.45.06.85.18,1.21.12.36.29.67.52.92.23.25.51.45.84.59s.7.21,1.12.21Z"/>
      <path class="cls-2" d="M76.98,8.61v11.62h-1.9v-7.5c0-.3.02-.62.05-.97l-3.51,6.6c-.17.32-.42.47-.76.47h-.31c-.34,0-.6-.16-.76-.47l-3.55-6.62c.02.18.03.35.04.52.01.17.02.33.02.47v7.5h-1.9v-11.62h1.63c.1,0,.18,0,.25,0,.07,0,.13.02.19.04s.11.06.15.1c.05.05.09.11.13.19l3.48,6.45c.09.17.18.35.25.53.08.18.15.37.23.56.07-.2.15-.39.23-.57s.17-.36.26-.53l3.43-6.44c.04-.08.09-.14.14-.19s.1-.08.16-.1c.06-.02.12-.04.19-.04.07,0,.15,0,.25,0h1.63Z"/>
      <path class="cls-2" d="M83.57,8.61c.76,0,1.41.07,1.95.22s.98.35,1.33.62c.35.27.6.59.76.97.16.38.24.81.24,1.29,0,.27-.04.53-.12.78s-.21.48-.37.7c-.17.22-.38.41-.64.59-.26.18-.57.33-.93.45,1.6.36,2.39,1.22,2.39,2.59,0,.49-.09.95-.28,1.37-.19.42-.46.78-.82,1.08-.36.3-.8.54-1.33.71-.52.17-1.12.26-1.8.26h-4.39v-11.62h4ZM81.73,10.28v3.36h1.72c.74,0,1.3-.13,1.67-.4.38-.27.57-.69.57-1.28s-.17-1.04-.51-1.29c-.34-.26-.88-.39-1.61-.39h-1.84ZM83.92,18.54c.4,0,.74-.05,1.01-.14.27-.1.49-.22.66-.38.16-.16.28-.35.35-.56.07-.21.11-.44.11-.68s-.04-.48-.12-.68c-.08-.2-.21-.37-.38-.51-.17-.14-.39-.25-.66-.33s-.6-.11-.98-.11h-2.18v3.41h2.19Z"/>
      <path class="cls-2" d="M99.22,20.23h-1.95c-.37,0-.64-.14-.8-.43l-2.44-3.72c-.09-.14-.19-.24-.3-.3-.11-.06-.27-.09-.49-.09h-.92v4.54h-2.16v-11.62h3.54c.79,0,1.46.08,2.03.25.57.16,1.03.39,1.39.69.36.29.63.65.8,1.06.17.41.26.86.26,1.35,0,.39-.06.76-.17,1.11-.12.35-.28.66-.5.95s-.48.53-.8.75c-.32.21-.68.38-1.09.51.14.08.27.18.39.29.12.11.22.24.32.39l2.91,4.29ZM93.66,14.14c.41,0,.76-.05,1.06-.15s.55-.24.75-.42c.2-.18.34-.39.44-.64.1-.25.15-.52.15-.81,0-.59-.19-1.04-.58-1.36-.39-.32-.98-.47-1.78-.47h-1.38v3.86h1.35Z"/>
      <path class="cls-2" d="M102.65,10.33v3.22h4.07v1.66h-4.07v3.29h5.16v1.73h-7.33v-11.62h7.33v1.72h-5.16Z"/>
      <path class="cls-2" d="M116.52,18.44v1.78h-6.8v-11.62h2.16v9.83h4.64Z"/>
      <path class="cls-2" d="M124.87,18.44v1.78h-6.8v-11.62h2.16v9.83h4.64Z"/>
      <path class="cls-2" d="M136.37,20.23h-1.67c-.19,0-.34-.05-.46-.14-.12-.09-.21-.21-.27-.35l-.87-2.37h-4.81l-.87,2.37c-.04.12-.13.24-.25.34-.12.1-.28.15-.46.15h-1.69l4.57-11.62h2.2l4.56,11.62ZM132.55,15.84l-1.41-3.86c-.07-.17-.14-.38-.22-.61-.08-.24-.15-.49-.22-.76-.07.27-.14.53-.22.77-.08.24-.15.45-.22.62l-1.41,3.85h3.7Z"/>
      <path class="cls-2" d="M150.9,14.54c0,.88-.13,1.67-.39,2.37-.26.7-.63,1.3-1.11,1.79-.48.49-1.05.87-1.72,1.13s-1.4.39-2.21.39h-4.15v-11.37h4.15c.8,0,1.54.13,2.21.39s1.24.64,1.72,1.13c.48.49.85,1.09,1.11,1.79.26.7.39,1.49.39,2.36ZM150.05,14.54c0-.79-.11-1.5-.33-2.12-.22-.62-.53-1.15-.93-1.57-.4-.43-.88-.76-1.45-.98-.56-.22-1.18-.34-1.86-.34h-3.33v10.03h3.33c.68,0,1.3-.11,1.86-.34.56-.23,1.04-.55,1.45-.98.4-.43.71-.95.93-1.57.22-.62.33-1.33.33-2.13Z"/>
      <path class="cls-2" d="M154.36,20.23h-.83v-11.37h.83v11.37Z"/>
      <path class="cls-2" d="M166.8,15.07v4.04c-.57.4-1.17.71-1.82.92-.64.21-1.37.32-2.17.32-.9,0-1.71-.14-2.43-.41s-1.33-.67-1.84-1.17c-.51-.51-.89-1.12-1.16-1.84s-.41-1.52-.41-2.39.13-1.67.4-2.39c.27-.71.65-1.33,1.14-1.83.5-.51,1.09-.9,1.79-1.17.7-.28,1.49-.41,2.37-.41.43,0,.83.03,1.2.09.37.06.71.15,1.02.26.32.12.61.26.88.43.27.17.54.36.79.58l-.23.35c-.07.13-.19.16-.34.09-.08-.03-.2-.11-.35-.23-.15-.12-.36-.24-.62-.37-.26-.13-.59-.24-.98-.35-.39-.1-.86-.15-1.42-.15-.74,0-1.41.12-2,.35-.6.24-1.11.57-1.53,1.01-.42.44-.75.97-.97,1.61s-.34,1.34-.34,2.13.11,1.52.34,2.15c.23.64.56,1.18.99,1.62.43.44.96.79,1.57,1.02.62.24,1.31.35,2.08.35.34,0,.65-.02.94-.06.29-.04.56-.1.82-.18.26-.08.51-.17.75-.29.24-.12.49-.25.74-.39v-3.06h-2.18c-.06,0-.11-.02-.15-.06s-.06-.08-.06-.13v-.45h3.13Z"/>
      <path class="cls-2" d="M170.36,20.23h-.83v-11.37h.83v11.37Z"/>
      <path class="cls-2" d="M181.11,9.56h-3.99v10.67h-.83v-10.67h-4.02v-.7h8.84v.7Z"/>
      <path class="cls-2" d="M190.54,20.23h-.63c-.08,0-.14-.02-.18-.06-.05-.04-.09-.09-.11-.16l-1.33-3.3h-5.58l-1.33,3.3c-.02.06-.06.11-.11.15-.05.04-.12.06-.19.06h-.63l4.65-11.37h.81l4.65,11.37ZM188.03,16.1l-2.31-5.74c-.08-.19-.16-.41-.23-.67-.03.13-.07.25-.1.37s-.08.22-.12.32l-2.31,5.74h5.09Z"/>
      <path class="cls-2" d="M198.64,19.53v.7h-6.21v-11.37h.83v10.67h5.38Z"/>
    </g>
    <g>
      <path class="cls-2" d="M58.61,38.1h-.46c-.05,0-.1-.01-.13-.04-.04-.03-.06-.07-.08-.11l-.96-2.38h-4.03l-.96,2.38s-.04.08-.08.11c-.04.03-.08.05-.14.05h-.45l3.36-8.2h.59l3.36,8.2ZM56.8,35.12l-1.67-4.15c-.06-.13-.11-.3-.17-.49-.02.09-.05.18-.08.26s-.06.16-.09.23l-1.67,4.14h3.67Z"/>
      <path class="cls-2" d="M65.64,38.1h-.51c-.07,0-.12-.01-.17-.03-.04-.02-.09-.06-.12-.12l-2.63-3.33s-.06-.08-.1-.11c-.03-.03-.07-.05-.11-.07-.04-.02-.09-.03-.15-.04-.06,0-.12-.01-.21-.01h-1.07v3.71h-.6v-8.2h2.1c.94,0,1.65.18,2.12.55s.7.9.7,1.61c0,.31-.05.6-.16.86-.11.26-.26.49-.47.68s-.45.35-.74.48c-.29.12-.61.21-.97.25.09.06.18.14.25.23l2.82,3.55ZM62,33.95c.36,0,.69-.04.98-.13.29-.09.53-.21.73-.37.2-.16.35-.36.46-.59.1-.23.16-.49.16-.77,0-.58-.19-1.02-.57-1.3s-.94-.42-1.67-.42h-1.5v3.58h1.42Z"/>
      <path class="cls-2" d="M72.01,30.4h-2.88v7.7h-.6v-7.7h-2.9v-.5h6.38v.5Z"/>
      <path class="cls-2" d="M82.89,38.1h-.52c-.07,0-.13,0-.17-.02-.04-.02-.1-.05-.15-.1l-1.19-1.17c-.17.2-.36.39-.57.55s-.43.31-.68.44c-.24.12-.5.22-.78.29s-.57.1-.88.1c-.29,0-.58-.05-.86-.14-.28-.1-.54-.24-.76-.43-.22-.19-.4-.42-.54-.69-.14-.27-.21-.58-.21-.93,0-.28.05-.54.15-.8.1-.25.24-.48.41-.7s.38-.4.62-.57c.24-.17.5-.3.78-.41-.28-.31-.49-.61-.62-.9-.13-.29-.2-.6-.2-.93,0-.27.05-.52.15-.75.1-.23.24-.43.42-.6.18-.17.4-.3.65-.4.25-.1.54-.14.85-.14.26,0,.5.04.74.13.23.09.43.21.61.36.17.15.31.33.41.52s.16.41.17.62l-.31.06s-.07,0-.11-.02-.06-.06-.08-.11c-.02-.1-.06-.22-.12-.35-.06-.13-.15-.25-.27-.37s-.26-.21-.43-.29-.37-.12-.6-.12-.44.04-.63.11-.35.17-.49.3c-.13.13-.24.28-.32.46s-.11.37-.11.58c0,.32.08.62.24.91.16.29.41.6.75.93l2.59,2.55c.17-.28.31-.57.41-.87.1-.3.17-.59.2-.87,0-.05.02-.09.05-.12s.06-.04.1-.04h.32c0,.36-.08.74-.2,1.12-.13.38-.31.75-.55,1.1l1.72,1.69ZM77.82,33.82c-.25.1-.49.23-.69.38-.21.15-.38.32-.52.5s-.25.38-.33.6c-.08.21-.12.43-.12.66,0,.3.06.56.17.78.11.22.26.4.44.55.18.15.38.26.61.33.22.07.44.11.66.11.27,0,.53-.03.77-.09s.47-.15.68-.26.4-.24.58-.39c.18-.15.34-.32.48-.5l-2.66-2.61-.06-.06Z"/>
      <path class="cls-2" d="M94.35,33.99c0,.63-.09,1.2-.28,1.71s-.46.94-.8,1.29c-.34.36-.76.63-1.24.82s-1.01.28-1.59.28h-3v-8.2h3c.58,0,1.11.09,1.59.28s.89.46,1.24.82c.34.36.61.79.8,1.29.19.51.28,1.07.28,1.71ZM93.73,33.99c0-.57-.08-1.08-.24-1.53s-.38-.83-.67-1.14c-.29-.31-.64-.54-1.04-.71-.41-.16-.85-.24-1.34-.24h-2.4v7.24h2.4c.49,0,.94-.08,1.34-.24.41-.16.75-.4,1.04-.71.29-.31.51-.69.67-1.14s.24-.96.24-1.54Z"/>
      <path class="cls-2" d="M101.18,37.6v.49h-4.93v-8.2h4.92v.49h-4.32v3.32h3.59v.48h-3.59v3.42h4.33Z"/>
      <path class="cls-2" d="M106.96,30.89c-.03.07-.08.1-.15.1-.05,0-.12-.04-.19-.11-.08-.07-.19-.15-.32-.24-.14-.09-.3-.17-.51-.24-.2-.07-.45-.11-.75-.11s-.56.04-.79.13c-.23.08-.42.2-.57.35-.15.15-.27.32-.35.51s-.12.4-.12.61c0,.28.06.51.18.69s.27.34.47.46c.19.13.41.23.66.32s.5.17.76.26c.26.08.51.18.76.28.25.1.46.23.66.38.19.16.35.35.47.57.12.23.18.51.18.84s-.06.67-.18.97c-.12.3-.29.57-.51.79-.22.22-.5.4-.82.53-.33.13-.7.19-1.11.19-.54,0-1.01-.1-1.4-.29s-.73-.45-1.03-.79l.16-.26c.05-.06.1-.09.16-.09.03,0,.08.02.13.07.05.05.12.1.2.17s.17.14.28.22c.11.08.23.15.38.22.14.07.31.12.49.17.19.05.4.07.63.07.32,0,.61-.05.87-.15.26-.1.47-.23.65-.4.18-.17.31-.37.4-.61.09-.23.14-.48.14-.75,0-.29-.06-.53-.18-.72-.12-.19-.27-.34-.47-.47s-.41-.23-.66-.32c-.25-.08-.5-.17-.76-.25s-.51-.17-.76-.27-.46-.23-.66-.39-.35-.35-.47-.58c-.12-.23-.18-.53-.18-.88,0-.27.05-.54.16-.79.1-.26.26-.48.46-.68.2-.2.45-.35.75-.47.3-.12.63-.18,1.01-.18.43,0,.81.07,1.15.2.34.13.65.34.92.62l-.14.27Z"/>
      <path class="cls-2" d="M109.78,38.1h-.6v-8.2h.6v8.2Z"/>
      <path class="cls-2" d="M118.75,34.38v2.92c-.41.29-.85.51-1.31.67-.46.15-.99.23-1.57.23-.65,0-1.23-.1-1.75-.3-.52-.2-.96-.48-1.33-.85s-.65-.81-.84-1.32c-.2-.52-.29-1.09-.29-1.73s.1-1.21.29-1.73c.19-.52.47-.96.82-1.32s.79-.65,1.3-.85c.51-.2,1.08-.3,1.71-.3.31,0,.6.02.87.06.26.04.51.11.74.19.23.08.44.19.64.31.2.12.39.26.57.42l-.16.26c-.05.09-.14.11-.24.06-.06-.02-.14-.08-.25-.16s-.26-.17-.45-.27-.42-.18-.7-.25c-.28-.07-.62-.11-1.02-.11-.53,0-1.02.09-1.45.26-.43.17-.8.41-1.1.73-.3.32-.54.7-.7,1.16s-.25.97-.25,1.54.08,1.09.25,1.55.4.85.71,1.17c.31.32.69.57,1.13.74s.95.25,1.5.25c.24,0,.47-.02.68-.05.21-.03.4-.07.59-.13.19-.06.37-.12.54-.21.18-.08.35-.18.54-.28v-2.21h-1.57s-.08-.01-.11-.04c-.03-.03-.04-.06-.04-.09v-.33h2.26Z"/>
      <path class="cls-2" d="M127.05,29.89v8.2h-.28c-.05,0-.09,0-.12-.03-.03-.02-.06-.05-.1-.09l-5.33-7.12c.01.12.02.23.02.33v6.91h-.52v-8.2h.29c.05,0,.1,0,.12.02s.06.04.1.09l5.32,7.1c-.01-.12-.02-.23-.02-.33v-6.88h.52Z"/>
    </g>
  </g>
</svg>